<?xml version="1.0" standalone="no"?>
<!DOCTYPE svg PUBLIC "-//W3C//DTD SVG 20010904//EN"
 "http://www.w3.org/TR/2001/REC-SVG-20010904/DTD/svg10.dtd">
<svg version="1.0" xmlns="http://www.w3.org/2000/svg"
 width="206.000000pt" height="300.000000pt" viewBox="0 0 206.000000 300.000000"
 preserveAspectRatio="xMidYMid meet">

<g transform="translate(0.000000,300.000000) scale(0.100000,-0.100000)"
fill="#000000" stroke="none">
<path d="M813 2891 c-22 -16 -54 -51 -70 -78 -27 -43 -28 -49 -12 -50 12 -1
16 3 12 13 -5 14 46 89 71 106 25 16 51 37 45 38 -3 0 -24 -13 -46 -29z"/>
<path d="M1000 2851 c63 -10 106 -35 165 -96 33 -35 62 -55 85 -60 l35 -7 -60
56 c-81 75 -141 107 -213 111 -53 4 -54 3 -12 -4z"/>
<path d="M435 2746 c-25 -30 -42 -43 -53 -40 -11 4 -10 1 3 -7 11 -7 23 -17
27 -23 12 -18 9 -66 -4 -67 -7 0 0 -5 17 -11 16 -6 37 -20 45 -31 9 -11 25
-21 36 -22 10 -1 33 -5 49 -8 17 -4 116 -13 220 -22 163 -13 327 -31 440 -50
19 -4 15 0 -13 9 -68 22 -164 36 -357 52 -99 8 -209 17 -245 20 -36 4 -72 7
-81 8 -9 0 -14 8 -13 21 1 11 3 62 3 114 l1 94 73 -6 c54 -4 62 -3 32 3 -22 5
-63 9 -92 9 -49 1 -53 -1 -88 -43z"/>
<path d="M668 2763 c6 -2 18 -2 25 0 6 3 1 5 -13 5 -14 0 -19 -2 -12 -5z"/>
<path d="M838 2743 c7 -3 16 -2 19 1 4 3 -2 6 -13 5 -11 0 -14 -3 -6 -6z"/>
<path d="M883 2733 c9 -2 23 -2 30 0 6 3 -1 5 -18 5 -16 0 -22 -2 -12 -5z"/>
<path d="M135 2710 c-10 -11 -16 -22 -14 -24 2 -2 12 7 22 20 22 29 17 32 -8
4z"/>
<path d="M988 2723 c6 -2 18 -2 25 0 6 3 1 5 -13 5 -14 0 -19 -2 -12 -5z"/>
<path d="M1048 2713 c6 -2 18 -2 25 0 6 3 1 5 -13 5 -14 0 -19 -2 -12 -5z"/>
<path d="M1423 2663 c9 -2 23 -2 30 0 6 3 -1 5 -18 5 -16 0 -22 -2 -12 -5z"/>
<path d="M1488 2653 c6 -2 18 -2 25 0 6 3 1 5 -13 5 -14 0 -19 -2 -12 -5z"/>
<path d="M240 2551 c-5 -11 -9 -44 -8 -73 l1 -53 6 60 c3 33 10 66 14 73 5 6
6 12 3 12 -3 0 -10 -9 -16 -19z"/>
<path d="M931 2416 c-8 -9 -10 -28 -6 -49 6 -31 4 -35 -22 -46 -49 -20 -85
-54 -78 -73 6 -15 12 -13 51 16 25 19 67 42 95 52 53 20 52 17 37 84 -2 9 10
14 37 17 70 7 62 11 -21 12 -59 1 -85 -3 -93 -13z"/>
<path d="M243 2360 c0 -36 2 -50 4 -32 2 17 2 47 0 65 -2 17 -4 3 -4 -33z"/>
<path d="M725 2297 c-9 -15 -22 -24 -28 -20 -6 3 -7 1 -3 -5 4 -7 2 -12 -3
-12 -6 0 -11 -4 -11 -10 0 -5 -9 -19 -21 -31 -11 -11 -18 -27 -15 -35 3 -8 2
-13 -3 -10 -10 7 -28 -30 -36 -76 -6 -31 -4 -34 29 -46 l36 -13 0 -97 1 -97
23 28 c20 25 26 27 43 17 16 -10 25 -8 58 15 37 24 77 70 45 50 -10 -6 -11 4
-7 46 3 30 8 65 11 79 4 14 0 9 -8 -10 -8 -19 -15 -45 -15 -57 -1 -12 -13 -34
-28 -50 l-28 -27 -3 76 -3 77 -32 6 c-46 10 -47 12 -33 53 7 20 11 43 9 50 -3
6 0 12 5 12 6 0 13 8 16 18 4 10 15 28 26 39 16 18 17 24 6 39 -12 16 -14 16
-31 -9z"/>
<path d="M1366 2247 c-13 -10 -16 -20 -12 -35 10 -29 24 -28 38 3 15 33 0 51
-26 32z"/>
<path d="M254 2075 c0 -71 1 -99 3 -62 2 37 2 96 0 130 -2 34 -3 4 -3 -68z"/>
<path d="M264 1835 c0 -55 1 -76 3 -47 2 29 2 74 0 100 -2 26 -3 2 -3 -53z"/>
<path d="M632 1828 c-18 -9 -22 -17 -17 -35 7 -30 55 -132 65 -138 3 -2 7 21
8 50 1 49 -1 55 -19 55 -21 0 -22 15 -3 64 7 18 -1 19 -34 4z"/>
<path d="M837 1798 c-28 -22 -55 -130 -28 -114 5 4 8 17 6 31 -3 32 3 32 15
-1 8 -21 7 -29 -5 -38 -15 -11 -14 -14 5 -38 42 -54 130 -58 176 -7 18 20 18
21 -1 31 -33 19 -106 91 -121 120 -16 31 -23 34 -47 16z"/>
<path d="M742 1710 c0 -14 2 -19 5 -12 2 6 2 18 0 25 -3 6 -5 1 -5 -13z"/>
<path d="M271 1665 c-2 -93 18 -575 30 -720 11 -141 30 -193 79 -223 23 -14
22 -12 -6 19 -17 19 -36 48 -42 64 -16 42 -29 229 -42 580 -11 309 -16 384
-19 280z"/>
<path d="M1338 1686 c-15 -8 -29 -12 -32 -10 -3 2 -4 1 -2 -2 3 -3 -11 -19
-30 -36 -30 -27 -36 -45 -24 -78 2 -3 2 -8 1 -12 -2 -14 22 -9 41 8 16 16 18
15 27 -7 5 -13 6 -28 3 -33 -3 -5 0 -6 7 -2 6 4 8 12 5 18 -4 6 0 14 7 19 10
6 11 9 2 9 -7 0 -13 7 -13 15 0 8 5 15 10 15 6 0 10 5 10 11 0 6 -7 9 -15 6
-20 -8 -27 7 -16 36 6 16 20 26 40 30 17 4 31 11 31 17 0 14 -20 12 -52 -4z"/>
<path d="M1080 1551 c0 -5 5 -13 10 -16 6 -3 10 -2 10 4 0 5 -4 13 -10 16 -5
3 -10 2 -10 -4z"/>
<path d="M1215 1552 c4 -7 9 -28 12 -45 7 -46 16 -49 10 -3 -3 21 -11 43 -18
50 -9 8 -10 8 -4 -2z"/>
<path d="M1040 1525 c-7 -8 -19 -15 -27 -15 -11 0 -14 -7 -10 -26 3 -20 0 -28
-14 -31 -55 -15 14 -34 116 -32 48 1 54 3 30 9 -16 4 -25 8 -20 9 6 1 0 6 -13
11 -12 5 -30 6 -39 3 -13 -5 -15 -3 -9 13 24 61 16 95 -14 59z m57 -91 c-3 -3
-12 -4 -19 -1 -8 3 -5 6 6 6 11 1 17 -2 13 -5z"/>
<path d="M1370 1460 c0 -5 6 -10 14 -10 8 0 18 5 21 10 3 6 -3 10 -14 10 -12
0 -21 -4 -21 -10z"/>
<path d="M416 700 c6 -6 18 -13 25 -14 29 -6 49 -18 43 -27 -3 -5 3 -6 12 -2
12 4 15 3 10 -5 -4 -7 -3 -12 3 -12 15 0 88 -76 119 -123 15 -23 29 -44 32
-47 3 -3 14 -24 24 -46 10 -23 31 -51 47 -63 27 -20 40 -17 20 5 -5 5 -21 38
-35 73 -43 106 -122 193 -222 244 -41 20 -92 32 -78 17z"/>
<path d="M798 323 c7 -3 16 -2 19 1 4 3 -2 6 -13 5 -11 0 -14 -3 -6 -6z"/>
</g>
</svg>
